<svg width="18" height="16" viewBox="0 0 18 16" fill="none" xmlns="http://www.w3.org/2000/svg">
<path d="M0.625 5.11719V3.75977C0.625 2.75065 0.898438 1.94987 1.44531 1.35742C1.9987 0.758464 2.78646 0.458984 3.80859 0.458984C4.83724 0.458984 5.625 0.758464 6.17188 1.35742C6.71875 1.95638 6.99219 2.75716 6.99219 3.75977V5.11719C6.99219 6.1263 6.71549 6.93034 6.16211 7.5293C5.61523 8.12826 4.83073 8.42773 3.80859 8.42773C2.78646 8.42773 1.9987 8.12826 1.44531 7.5293C0.898438 6.93034 0.625 6.1263 0.625 5.11719ZM2.42188 5.13672C2.42188 5.66406 2.52279 6.09049 2.72461 6.41602C2.93294 6.74154 3.29427 6.9043 3.80859 6.9043C4.32292 6.9043 4.68424 6.74154 4.89258 6.41602C5.10091 6.09049 5.20508 5.66406 5.20508 5.13672V3.75C5.20508 3.22266 5.10091 2.79622 4.89258 2.4707C4.68424 2.14518 4.32292 1.98242 3.80859 1.98242C3.29427 1.98242 2.93294 2.14518 2.72461 2.4707C2.52279 2.79622 2.42188 3.22266 2.42188 3.75V5.13672ZM13.9258 1.17188L5.17578 15.4199L3.82812 14.5312L12.5684 0.302734L13.9258 1.17188ZM10.7031 11.9141V10.5566C10.7031 9.54753 10.9766 8.74674 11.5234 8.1543C12.0768 7.55534 12.8646 7.25586 13.8867 7.25586C14.9154 7.25586 15.7031 7.55534 16.25 8.1543C16.7969 8.75326 17.0703 9.55404 17.0703 10.5566V11.9141C17.0703 12.9232 16.7936 13.7272 16.2402 14.3262C15.6934 14.9251 14.9089 15.2246 13.8867 15.2246C12.8646 15.2246 12.0768 14.9251 11.5234 14.3262C10.9766 13.7272 10.7031 12.9232 10.7031 11.9141ZM12.5 11.9336C12.5 12.4609 12.6009 12.8874 12.8027 13.2129C13.0111 13.5384 13.3724 13.7012 13.8867 13.7012C14.401 13.7012 14.7624 13.5384 14.9707 13.2129C15.179 12.8874 15.2832 12.4609 15.2832 11.9336V10.5469C15.2832 10.0195 15.179 9.5931 14.9707 9.26758C14.7624 8.94206 14.401 8.7793 13.8867 8.7793C13.3724 8.7793 13.0111 8.94206 12.8027 9.26758C12.6009 9.5931 12.5 10.0195 12.5 10.5469V11.9336Z" fill="#C7A27E"/>
</svg>
