<svg width="425" height="131" viewBox="0 0 425 131" fill="none" xmlns="http://www.w3.org/2000/svg">
<g clip-path="url(#clip0_313_357)">
<path d="M2.36612 0.0311279H424.052V73.9663H0.695312V0.0311279H2.36612ZM420.709 3.35684H4.03691V70.6406H420.709V3.35684Z" fill="black"/>
<path d="M74.5801 1.69397V72.3036H71.2383V1.69397H74.5801Z" fill="black"/>
<path d="M144.293 1.69397V72.3036H140.951V1.69397H144.293Z" fill="black"/>
<path d="M214.045 1.69397V72.3036H210.703V1.69397H214.045Z" fill="black"/>
<path d="M283.972 1.69397V72.3036H280.631V1.69397H283.972Z" fill="black"/>
<path d="M354.446 1.69397V72.3036H351.104V1.69397H354.446Z" fill="black"/>
<path d="M35.1651 54.8946V21.9055H22.1738V17.3293H53.3963V21.9055H40.4046V54.8946H35.1651Z" fill="black"/>
<path d="M97.0039 54.8946V17.3293H118.977V21.9055H102.297V33.6643H115.823V38.2405H102.297V50.319H119.886V54.8946H97.0039Z" fill="black"/>
<path d="M161.859 35.8998C161.859 30.4012 163.669 25.8256 167.286 22.1718C170.904 18.5185 175.493 16.6917 181.053 16.6917C186.791 16.6917 191.389 18.3408 194.846 21.6397L192.173 25.5772C190.783 24.3357 189.099 23.3426 187.121 22.5975C185.143 21.8527 183.191 21.4804 181.267 21.4804C176.99 21.4804 173.595 22.8459 171.082 25.5772C168.569 28.3086 167.313 31.732 167.313 35.8467C167.313 39.9966 168.596 43.5087 171.162 46.3817C173.728 49.2551 177.132 50.6916 181.373 50.6916C183.476 50.6916 185.552 50.2571 187.602 49.3881C189.651 48.5188 191.442 47.3216 192.975 45.7963L195.808 49.5741C191.817 53.5471 186.951 55.5339 181.213 55.5339C175.475 55.5339 170.815 53.6625 167.233 49.9202C163.651 46.1778 161.859 41.5047 161.859 35.8998Z" fill="black"/>
<path d="M234.818 54.8946V17.3293H240.111V33.8242H259.732V17.3293H264.971V54.8946H259.732V38.3998H240.111V54.8946H234.818Z" fill="black"/>
<path d="M302.443 54.8946V17.3293H307.684L324.525 41.6992L327.624 47.1793H327.731C327.518 44.9446 327.409 43.1179 327.409 41.6992V17.3293H332.648V54.8946H327.464L310.623 30.5252L307.523 25.0446H307.414C307.63 27.2797 307.736 29.1061 307.736 30.5252V54.8946H302.443Z" fill="black"/>
<path d="M368.857 35.8467C368.857 30.4191 370.694 25.8699 374.366 22.1987C378.035 18.527 382.668 16.6917 388.265 16.6917C393.825 16.6917 398.442 18.527 402.112 22.1987C405.784 25.8699 407.617 30.4191 407.617 35.8467C407.617 41.4156 405.784 46.089 402.112 49.8668C398.442 53.6446 393.825 55.5339 388.265 55.5339C382.705 55.5339 378.081 53.6446 374.393 49.8668C370.703 46.089 368.857 41.4156 368.857 35.8467ZM374.311 35.8467C374.311 40.0678 375.629 43.5972 378.269 46.4351C380.905 49.2727 384.238 50.6916 388.265 50.6916C392.258 50.6916 395.573 49.2727 398.209 46.4351C400.848 43.5972 402.166 40.0678 402.166 35.8467C402.166 31.7671 400.848 28.3529 398.209 25.6041C395.573 22.8548 392.258 21.4804 388.265 21.4804C384.238 21.4804 380.905 22.8548 378.269 25.6041C375.629 28.3529 374.311 31.7671 374.311 35.8467Z" fill="black"/>
<path d="M21.6855 110.794C21.6855 106.115 23.2247 102.22 26.3039 99.1107C29.3827 96.0007 33.2879 94.4463 38.0199 94.4463C42.9039 94.4463 46.8169 95.8501 49.759 98.6577L47.4844 102.009C46.3015 100.952 44.868 100.107 43.1845 99.4728C41.5007 98.8386 39.8403 98.5219 38.2023 98.5219C34.5624 98.5219 31.6729 99.6843 29.5342 102.009C27.396 104.333 26.3267 107.246 26.3267 110.748C26.3267 114.28 27.4188 117.27 29.6025 119.715C31.7866 122.16 34.6835 123.383 38.2932 123.383C40.083 123.383 41.8498 123.013 43.5942 122.274C45.3382 121.534 46.8623 120.515 48.1671 119.217L50.5783 122.432C47.1811 125.813 43.0403 127.504 38.1568 127.504C33.2728 127.504 29.3069 125.911 26.2585 122.726C23.2095 119.541 21.6855 115.564 21.6855 110.794ZM65.6389 110.748C65.6389 106.13 67.2009 102.258 70.3254 99.1334C73.4497 96.0083 77.3932 94.4463 82.1558 94.4463C86.8877 94.4463 90.8155 96.0083 93.9404 99.1334C97.0646 102.258 98.6268 106.13 98.6268 110.748C98.6268 115.488 97.0646 119.466 93.9404 122.681C90.8155 125.896 86.8877 127.504 82.1558 127.504C77.4235 127.504 73.4875 125.896 70.3482 122.681C67.2085 119.466 65.6389 115.488 65.6389 110.748ZM70.28 110.748C70.28 114.341 71.4023 117.345 73.6466 119.76C75.8916 122.175 78.7279 123.383 82.1558 123.383C85.5527 123.383 88.3739 122.175 90.6186 119.76C92.8635 117.345 93.9858 114.341 93.9858 110.748C93.9858 107.277 92.8635 104.371 90.6186 102.032C88.3739 99.6918 85.5527 98.5219 82.1558 98.5219C78.7279 98.5219 75.8916 99.6918 73.6466 102.032C71.4023 104.371 70.28 107.277 70.28 110.748ZM116.463 126.96V94.9899H120.967V123.066H135.391V126.96H116.463Z" fill="black"/>
<path d="M153.865 127.006V95.0357H158.37V123.112H172.793V127.006H153.865ZM187.899 127.006V95.0357H206.6V98.9298H192.404V108.938H203.915V112.832H192.404V123.112H207.374V127.006H187.899ZM222.98 110.84C222.98 106.161 224.519 102.266 227.598 99.1564C230.677 96.0468 234.582 94.4921 239.315 94.4921C244.199 94.4921 248.111 95.8959 251.054 98.7035L248.779 102.055C247.596 100.998 246.162 100.152 244.479 99.5185C242.795 98.8847 241.135 98.5677 239.497 98.5677C235.857 98.5677 232.968 99.73 230.829 102.055C228.69 104.379 227.621 107.292 227.621 110.794C227.621 114.326 228.713 117.316 230.897 119.761C233.081 122.206 235.978 123.429 239.588 123.429C241.377 123.429 243.144 123.059 244.889 122.319C246.633 121.58 248.157 120.561 249.461 119.263L251.873 122.478C248.475 125.859 244.335 127.55 239.451 127.55C234.567 127.55 230.602 125.957 227.553 122.772C224.504 119.587 222.98 115.61 222.98 110.84ZM275.078 127.006V98.9298H264.021V95.0357H290.594V98.9298H279.537V127.006H275.078ZM305.564 127.006V95.0357H310.067V127.006H305.564ZM327.95 110.794C327.95 106.176 329.51 102.304 332.637 99.1792C335.761 96.0543 339.703 94.4921 344.466 94.4921C349.199 94.4921 353.126 96.0543 356.25 99.1792C359.374 102.304 360.938 106.176 360.938 110.794C360.938 115.534 359.374 119.511 356.25 122.727C353.126 125.942 349.199 127.55 344.466 127.55C339.734 127.55 335.798 125.942 332.659 122.727C329.519 119.511 327.95 115.534 327.95 110.794ZM332.592 110.794C332.592 114.387 333.713 117.391 335.958 119.806C338.203 122.221 341.04 123.429 344.466 123.429C347.863 123.429 350.684 122.221 352.929 119.806C355.174 117.391 356.296 114.387 356.296 110.794C356.296 107.323 355.174 104.417 352.929 102.077C350.684 99.7376 347.863 98.5677 344.466 98.5677C341.04 98.5677 338.203 99.7376 335.958 102.077C333.713 104.417 332.592 107.323 332.592 110.794ZM378.772 127.006V95.0357H383.232L397.564 115.776L400.203 120.44H400.294C400.112 118.538 400.022 116.983 400.022 115.776V95.0357H404.482V127.006H400.067L385.735 106.266L383.096 101.602H383.005C383.187 103.504 383.278 105.059 383.278 106.266V127.006H378.772Z" fill="black"/>
</g>
<defs>
<clipPath id="clip0_313_357">
<rect width="424.2" height="130.29" fill="white"/>
</clipPath>
</defs>
</svg>
