<svg width="140" height="43" viewBox="0 0 140 43" fill="none" xmlns="http://www.w3.org/2000/svg">
<g clip-path="url(#clip0_204_5)">
<path d="M0.780913 0.00976562H139.951V24.4108H0.229492V0.00976562H0.780913ZM138.848 1.10736H1.33233V23.3132H138.848V1.10736Z" fill="black" fill-opacity="0.7"/>
<path d="M24.6136 0.558594V23.8621H23.5107V0.558594H24.6136Z" fill="black" fill-opacity="0.7"/>
<path d="M47.6214 0.558594V23.8621H46.5186V0.558594H47.6214Z" fill="black" fill-opacity="0.7"/>
<path d="M70.6419 0.558594V23.8621H69.5391V0.558594H70.6419Z" fill="black" fill-opacity="0.7"/>
<path d="M93.72 0.558594V23.8621H92.6172V0.558594H93.72Z" fill="black" fill-opacity="0.7"/>
<path d="M116.979 0.558594V23.8621H115.876V0.558594H116.979Z" fill="black" fill-opacity="0.7"/>
<path d="M11.6059 18.1175V7.23002H7.31836V5.71973H17.6228V7.23002H13.3351V18.1175H11.6059Z" fill="black" fill-opacity="0.7"/>
<path d="M32.0146 18.1175V5.71973H39.2664V7.23002H33.7614V11.1108H38.2255V12.6211H33.7614V16.6074H39.5664V18.1175H32.0146Z" fill="black" fill-opacity="0.7"/>
<path d="M53.4189 11.8481C53.4189 10.0334 54.016 8.5233 55.21 7.31743C56.4039 6.11172 57.9183 5.50879 59.7534 5.50879C61.6471 5.50879 63.1646 6.05308 64.3056 7.14181L63.4235 8.44132C62.9646 8.03159 62.4088 7.70383 61.7561 7.4579C61.1032 7.21212 60.4591 7.08923 59.8239 7.08923C58.4124 7.08923 57.292 7.53988 56.4627 8.44132C55.6334 9.34277 55.2187 10.4726 55.2187 11.8306C55.2187 13.2002 55.6421 14.3593 56.4891 15.3075C57.3361 16.2558 58.4594 16.7299 59.8592 16.7299C60.5532 16.7299 61.2384 16.5865 61.9149 16.2997C62.5912 16.0128 63.1823 15.6177 63.6881 15.1143L64.6232 16.3611C63.3058 17.6723 61.7001 18.328 59.8062 18.328C57.9125 18.328 56.3744 17.7104 55.1923 16.4753C54.0101 15.2402 53.4189 13.6979 53.4189 11.8481Z" fill="black" fill-opacity="0.7"/>
<path d="M77.498 18.1175V5.71973H79.2448V11.1636H85.7203V5.71973H87.4494V18.1175H85.7203V12.6737H79.2448V18.1175H77.498Z" fill="black" fill-opacity="0.7"/>
<path d="M99.8164 18.1175V5.71973H101.546L107.104 13.7626L108.127 15.5712H108.162C108.092 14.8337 108.056 14.2308 108.056 13.7626V5.71973H109.785V18.1175H108.074L102.516 10.0748L101.493 8.26602H101.457C101.528 9.00366 101.563 9.60644 101.563 10.0748V18.1175H99.8164Z" fill="black" fill-opacity="0.7"/>
<path d="M121.735 11.8306C121.735 10.0393 122.341 8.53792 123.553 7.3263C124.764 6.11452 126.293 5.50879 128.14 5.50879C129.975 5.50879 131.499 6.11452 132.71 7.3263C133.922 8.53792 134.527 10.0393 134.527 11.8306C134.527 13.6685 133.922 15.2109 132.71 16.4577C131.499 17.7045 129.975 18.328 128.14 18.328C126.305 18.328 124.779 17.7045 123.562 16.4577C122.344 15.2109 121.735 13.6685 121.735 11.8306ZM123.535 11.8306C123.535 13.2237 123.97 14.3885 124.841 15.3251C125.711 16.2616 126.811 16.7299 128.14 16.7299C129.458 16.7299 130.552 16.2616 131.422 15.3251C132.293 14.3885 132.728 13.2237 132.728 11.8306C132.728 10.4842 132.293 9.35739 131.422 8.45019C130.552 7.54283 129.458 7.08923 128.14 7.08923C126.811 7.08923 125.711 7.54283 124.841 8.45019C123.97 9.35739 123.535 10.4842 123.535 11.8306Z" fill="black" fill-opacity="0.7"/>
<path d="M7.15723 36.5652C7.15723 35.0208 7.6652 33.7355 8.68145 32.7093C9.69755 31.6829 10.9864 31.1699 12.5481 31.1699C14.16 31.1699 15.4514 31.6332 16.4224 32.5598L15.6717 33.6658C15.2813 33.317 14.8082 33.038 14.2526 32.8288C13.6969 32.6195 13.1489 32.515 12.6083 32.515C11.407 32.515 10.4534 32.8986 9.74756 33.6658C9.04187 34.433 8.68895 35.3943 8.68895 36.5501C8.68895 37.7158 9.04938 38.7024 9.77007 39.5094C10.4909 40.3164 11.447 40.7199 12.6383 40.7199C13.229 40.7199 13.8121 40.5978 14.3878 40.3538C14.9634 40.1097 15.4664 39.7734 15.897 39.345L16.6928 40.406C15.5716 41.522 14.205 42.08 12.5933 42.08C10.9814 42.08 9.67254 41.5543 8.66645 40.5032C7.6602 39.452 7.15723 38.1394 7.15723 36.5652ZM21.6633 36.5501C21.6633 35.0258 22.1788 33.7479 23.21 32.7168C24.2411 31.6854 25.5426 31.1699 27.1144 31.1699C28.6761 31.1699 29.9724 31.6854 31.0037 32.7168C32.0348 33.7479 32.5504 35.0258 32.5504 36.5501C32.5504 38.1144 32.0348 39.4271 31.0037 40.4883C29.9724 41.5494 28.6761 42.08 27.1144 42.08C25.5526 42.08 24.2536 41.5494 23.2175 40.4883C22.1813 39.4271 21.6633 38.1144 21.6633 36.5501ZM23.195 36.5501C23.195 37.7359 23.5654 38.7273 24.3061 39.5243C25.047 40.3214 25.9831 40.7199 27.1144 40.7199C28.2355 40.7199 29.1666 40.3214 29.9074 39.5243C30.6483 38.7273 31.0187 37.7359 31.0187 36.5501C31.0187 35.4044 30.6483 34.4454 29.9074 33.6733C29.1666 32.9011 28.2355 32.515 27.1144 32.515C25.9831 32.515 25.047 32.9011 24.3061 33.6733C23.5654 34.4454 23.195 35.4044 23.195 36.5501ZM38.4368 41.9006V31.3493H39.9235V40.6152H44.6837V41.9006H38.4368Z" fill="black" fill-opacity="0.7"/>
<path d="M50.7803 41.9162V31.3649H52.267V40.6309H57.0272V41.9162H50.7803ZM62.0127 41.9162V31.3649H68.1846V32.6501H63.4994V35.953H67.2985V37.2384H63.4994V40.6309H68.4398V41.9162H62.0127ZM73.5905 36.5808C73.5905 35.0365 74.0984 33.7511 75.1147 32.7249C76.1308 31.6986 77.4196 31.1855 78.9814 31.1855C80.5933 31.1855 81.8846 31.6488 82.8557 32.5754L82.105 33.6814C81.7146 33.3327 81.2414 33.0536 80.6858 32.8444C80.1302 32.6352 79.5822 32.5306 79.0415 32.5306C77.8402 32.5306 76.8867 32.9142 76.1808 33.6814C75.4751 34.4486 75.1222 35.41 75.1222 36.5657C75.1222 37.7315 75.4826 38.718 76.2033 39.525C76.9242 40.3321 77.8802 40.7356 79.0716 40.7356C79.6622 40.7356 80.2454 40.6135 80.821 40.3694C81.3967 40.1253 81.8996 39.789 82.3302 39.3606L83.1261 40.4217C82.0048 41.5376 80.6383 42.0956 79.0265 42.0956C77.4146 42.0956 76.1058 41.57 75.0997 40.5189C74.0934 39.4676 73.5905 38.1551 73.5905 36.5808ZM90.7846 41.9162V32.6501H87.1355V31.3649H95.9052V32.6501H92.2561V41.9162H90.7846ZM100.846 41.9162V31.3649H102.332V41.9162H100.846ZM108.234 36.5657C108.234 35.0415 108.749 33.7636 109.781 32.7324C110.812 31.7011 112.113 31.1855 113.685 31.1855C115.247 31.1855 116.543 31.7011 117.574 32.7324C118.605 33.7636 119.121 35.0415 119.121 36.5657C119.121 38.13 118.605 39.4427 117.574 40.5039C116.543 41.565 115.247 42.0956 113.685 42.0956C112.123 42.0956 110.824 41.565 109.788 40.5039C108.752 39.4427 108.234 38.13 108.234 36.5657ZM109.766 36.5657C109.766 37.7515 110.136 38.7429 110.877 39.54C111.618 40.337 112.554 40.7356 113.685 40.7356C114.806 40.7356 115.737 40.337 116.478 39.54C117.219 38.7429 117.589 37.7515 117.589 36.5657C117.589 35.4201 117.219 34.4611 116.478 33.6889C115.737 32.9167 114.806 32.5306 113.685 32.5306C112.554 32.5306 111.618 32.9167 110.877 33.6889C110.136 34.4611 109.766 35.4201 109.766 36.5657ZM125.007 41.9162V31.3649H126.479L131.209 38.2098L132.08 39.7492H132.11C132.05 39.1215 132.02 38.6083 132.02 38.2098V31.3649H133.492V41.9162H132.035L127.305 35.0713L126.434 33.5319H126.404C126.464 34.1596 126.494 34.6728 126.494 35.0713V41.9162H125.007Z" fill="black" fill-opacity="0.7"/>
</g>
<defs>
<clipPath id="clip0_204_5">
<rect width="140" height="43" fill="white"/>
</clipPath>
</defs>
</svg>
